<svg xmlns="http://www.w3.org/2000/svg" viewBox="0 0 36.33 41.63"><g id="레이어_2" data-name="레이어 2"><g id="격리_모드" data-name="격리 모드"><path d="M11.94,41.63A11,11,0,0,1,6.19,40C-4,33.74,1.44,24.1,1.49,24l7.2-11.17,2.1,1.35L3.63,25.31c-.15.25-4.21,7.59,3.89,12.57.26.16,5.83,3.6,10.4-1.68L32.66,13.32c.37-.59,3.49-5.95-2.22-9.71a6.85,6.85,0,0,0-4.67-1,6.39,6.39,0,0,0-4,3.06L8.39,26.46c-.23.56-1.51,4.06,1.44,5.95l.11.09c.24.18,2.5,1.79,5.25-1.1l10-15.56,2.11,1.36L17.09,33c-3.51,3.8-7.17,2.64-8.67,1.46-3.91-2.57-3.2-7.08-2.28-9.12l.09-.16L19.69,4.3A8.77,8.77,0,0,1,25.3.14a9.37,9.37,0,0,1,6.54,1.4c6.28,4.13,4.66,10.39,2.93,13.12l-14.9,23.1A10.18,10.18,0,0,1,11.94,41.63Z"/></g></g></svg>