<svg xmlns="http://www.w3.org/2000/svg" viewBox="0 0 287.39 87"><g id="레이어_2" data-name="레이어 2"><g id="레이어_2-2" data-name="레이어 2"><path d="M116.82,22.55c-16.55,0-30,14.42-30,32.21s13.42,32.2,30,32.2,30-14.42,30-32.2S133.38,22.55,116.82,22.55Zm2.42,51.17a18.61,18.61,0,1,1,18.61-18.61A18.61,18.61,0,0,1,119.24,73.72Z"/><path d="M189.16,87c-11.6,0-21.9-5-26.26-12.73l13-7.33c1.4,2.49,6.52,5.13,13.25,5.13,8,0,11.27-3.6,11.27-6.09s-3.27-6.1-11.27-6.1h0c-15-.48-26.09-9.35-26.09-21,0-12,11.76-21,27.35-21,11.6,0,21.91,5,26.26,12.72l-13,7.33c-1.4-2.48-6.52-5.12-13.25-5.12-8,0-11.27,3.6-11.27,6.09S182.42,45,190.42,45v0c15,.47,26.09,9.34,26.09,21C216.51,78,204.76,87,189.16,87Z"/><path d="M26.15,86.93C14.6,86.93,4.33,82,0,74.26l12.8-7.21c1.41,2.52,6.58,5.19,13.35,5.19,7.4,0,11.4-3.28,11.4-6.22s-4-6.21-11.4-6.21v0c-14.89-.47-26-9.29-26-20.88C.18,27,11.89,18,27.41,18,39,18,49.23,23,53.57,30.67l-12.8,7.21c-1.42-2.51-6.58-5.19-13.36-5.19C20,32.69,16,36,16,38.91s4,6.21,11.39,6.21v0c14.89.47,26,9.29,26,20.88C53.38,77.94,41.68,86.93,26.15,86.93Z"/><polygon points="70.2 0 62.16 0 62.16 13.24 62.16 86.97 70.22 86.97 78.26 86.97 78.26 73.72 78.26 0 70.2 0"/><polyline points="138.21 22.55 138.21 34.92 138.21 86.97 146.8 86.97 154.31 86.97 154.31 74.59 154.31 22.55"/><path d="M259,22.55A24,24,0,0,0,241.38,30V0H225.27V87h16.11V43.2A15.81,15.81,0,0,1,256,34.41c10.3,0,15.41,8.35,15.41,18.65V87h15.95V53.06C287.39,36.21,274.68,22.55,259,22.55Z"/></g></g></svg>